<?xml version="1.0" encoding="iso-8859-1"?>
<!-- Generator: Adobe Illustrator 16.0.0, SVG Export Plug-In . SVG Version: 6.00 Build 0)  -->
<!DOCTYPE svg PUBLIC "-//W3C//DTD SVG 1.1//EN" "http://www.w3.org/Graphics/SVG/1.1/DTD/svg11.dtd">
<svg version="1.1" id="Layer_1" xmlns="http://www.w3.org/2000/svg" xmlns:xlink="http://www.w3.org/1999/xlink" x="0px" y="0px"
	 width="39.886px" height="39.926px" viewBox="0 0 39.886 39.926" style="enable-background:new 0 0 39.886 39.926;"
	 xml:space="preserve">
<g>
	<path style="fill:#6DCFF6;" d="M9.477,30.384c-1.695-1.682-3.667-3.082-5.885-4.159c-0.873-0.416-2.22,0.138-3.02,1.241
		c-0.805,1.098-0.756,2.329,0.115,2.749L0.68,30.222c1.979,0.95,3.741,2.205,5.242,3.717c1.525,1.513,2.777,3.305,3.752,5.307
		c0.416,0.871,1.656,0.907,2.766,0.103c0.156-0.113,0.3-0.238,0.434-0.372c0.803-0.804,1.158-1.908,0.803-2.651
		C12.583,34.087,11.172,32.096,9.477,30.384z"/>
	<path style="fill:#6DCFF6;" d="M39.862,32.227c-1.529-8.66-5.236-15.957-10.742-21.462C23.622,5.264,16.326,1.561,7.662,0.025
		C6.642-0.156,5.328,0.654,4.729,1.814C4.121,2.979,4.456,4.068,5.469,4.248l-0.01,0.008c8.129,1.432,14.94,4.912,20.098,10.069
		c5.162,5.16,8.645,11.977,10.074,20.103c0.178,1.017,1.27,1.348,2.447,0.735c0.318-0.17,0.607-0.388,0.854-0.635
		C39.604,33.859,39.989,32.965,39.862,32.227z"/>
	<path style="fill:#6DCFF6;" d="M19.188,20.656c-3.248-3.247-7.28-5.714-11.963-7.194c-0.947-0.301-2.286,0.385-2.989,1.521
		c-0.71,1.132-0.521,2.305,0.424,2.605c4.282,1.365,7.989,3.625,10.98,6.616c3.005,3.006,5.271,6.754,6.662,11.071
		c0.301,0.942,1.475,1.133,2.613,0.417c0.238-0.146,0.453-0.319,0.643-0.51c0.738-0.739,1.121-1.741,0.883-2.494
		C24.915,28.004,22.458,23.927,19.188,20.656z"/>
</g>
<g>
</g>
<g>
</g>
<g>
</g>
<g>
</g>
<g>
</g>
<g>
</g>
</svg>
