<?xml version="1.0" encoding="iso-8859-1"?>
<!-- Generator: Adobe Illustrator 16.0.0, SVG Export Plug-In . SVG Version: 6.00 Build 0)  -->
<!DOCTYPE svg PUBLIC "-//W3C//DTD SVG 1.1//EN" "http://www.w3.org/Graphics/SVG/1.1/DTD/svg11.dtd">
<svg version="1.1" id="Layer_1" xmlns="http://www.w3.org/2000/svg" xmlns:xlink="http://www.w3.org/1999/xlink" x="0px" y="0px"
	 width="163.224px" height="44px" viewBox="0 0 163.224 44" style="enable-background:new 0 0 163.224 44;" xml:space="preserve">
<g>
	<g>
		<g>
			<path d="M15.064,36.016c-2.055,0-4.11-0.783-5.675-2.347c-3.13-3.13-3.13-8.221,0-11.351c0.424-0.424,1.11-0.424,1.534,0
				c0.423,0.424,0.423,1.111,0,1.535c-2.284,2.283-2.284,5.999,0,8.284c2.284,2.282,5.999,2.282,8.283,0
				c0.423-0.425,1.11-0.425,1.534,0c0.424,0.421,0.424,1.109,0,1.532C19.175,35.233,17.12,36.016,15.064,36.016z"/>
		</g>
	</g>
	<g>
		<g>
			<path d="M28.936,36.016c-2.055,0-4.111-0.783-5.675-2.347c-0.423-0.423-0.423-1.111,0-1.532c0.423-0.425,1.11-0.425,1.534,0
				c2.283,2.282,6,2.282,8.283,0c2.284-2.284,2.284-6.001,0-8.284c-0.423-0.423-0.423-1.11,0-1.535c0.424-0.424,1.111-0.424,1.535,0
				c3.128,3.13,3.128,8.221-0.001,11.351C33.047,35.233,30.991,36.016,28.936,36.016z"/>
		</g>
	</g>
	<g>
		<path d="M22,44C9.869,44,0,34.131,0,22S9.869,0,22,0s22,9.869,22,22S34.131,44,22,44z M22,2.722C11.37,2.722,2.722,11.37,2.722,22
			S11.37,41.278,22,41.278S41.278,32.63,41.278,22S32.63,2.722,22,2.722z"/>
	</g>
	<g>
		<g>
			<path style="fill:#ED1C24;" d="M21.13,16.488c0.423,0.423,1.116,0.423,1.539,0l1.527-1.526c0.423-0.423,0.77-0.841,0.77-0.928
				s0-0.648,0-1.247v-0.547c0-0.599-0.219-0.65-0.487-0.115l-0.389,0.777c-0.268,0.536-0.735,0.551-1.039,0.036l-0.5-0.848
				c-0.304-0.516-0.801-0.516-1.104,0l-0.499,0.849c-0.304,0.516-0.771,0.5-1.039-0.035l-0.389-0.778
				c-0.268-0.535-0.487-0.484-0.487,0.115v0.547c0,0.599,0,1.205,0,1.348s0.346,0.605,0.77,1.029L21.13,16.488z"/>
		</g>
	</g>
	<g>
		<g>
			<defs>
				<circle id="SVGID_1_" cx="22" cy="22" r="20.639"/>
			</defs>
			<clipPath id="SVGID_2_">
				<use xlink:href="#SVGID_1_"  style="overflow:visible;"/>
			</clipPath>
			<g style="clip-path:url(#SVGID_2_);">
				<g>
					<path d="M6.22,37.924c-0.278,0-0.555-0.106-0.767-0.319c-0.423-0.423-0.423-1.11,0-1.534l25.054-25.052
						c0.423-0.424,1.111-0.424,1.534,0c0.423,0.423,0.423,1.11,0,1.534L6.987,37.605C6.775,37.818,6.497,37.924,6.22,37.924z"/>
				</g>
			</g>
		</g>
		<g>
			<defs>
				<circle id="SVGID_3_" cx="22" cy="22" r="20.639"/>
			</defs>
			<clipPath id="SVGID_4_">
				<use xlink:href="#SVGID_3_"  style="overflow:visible;"/>
			</clipPath>
			<g style="clip-path:url(#SVGID_4_);">
				<g>
					<path d="M37.781,37.924c-0.277,0-0.555-0.106-0.766-0.319L11.96,12.552c-0.423-0.423-0.423-1.11,0-1.534
						c0.423-0.423,1.11-0.423,1.534,0l25.053,25.053c0.424,0.424,0.424,1.111,0,1.534C38.336,37.818,38.059,37.924,37.781,37.924z"
						/>
				</g>
			</g>
		</g>
	</g>
</g>
<g>
	<g>
		<path d="M53.642,8.828h7.371c0.963,0,1.939,0.079,2.926,0.235c0.987,0.157,1.873,0.482,2.656,0.976
			c0.783,0.494,1.421,1.18,1.915,2.06c0.494,0.879,0.741,2.041,0.741,3.486c0,1.301-0.385,2.433-1.156,3.396
			c-0.771,0.964-1.915,1.602-3.433,1.915v0.072c0.843,0.072,1.613,0.271,2.312,0.596c0.699,0.325,1.301,0.759,1.807,1.3
			c0.505,0.542,0.897,1.187,1.174,1.933c0.276,0.748,0.415,1.566,0.415,2.457c0,1.47-0.283,2.668-0.849,3.595
			c-0.566,0.928-1.277,1.656-2.132,2.186c-0.855,0.531-1.783,0.892-2.782,1.084c-1,0.192-1.933,0.289-2.8,0.289h-8.165V8.828z
			 M56.026,19.884h4.95c1.229,0,2.228-0.15,2.999-0.452c0.771-0.301,1.373-0.668,1.807-1.103c0.434-0.433,0.723-0.897,0.867-1.391
			c0.145-0.493,0.217-0.945,0.217-1.354c0-0.891-0.151-1.631-0.452-2.222c-0.301-0.59-0.704-1.06-1.21-1.409
			c-0.505-0.349-1.096-0.596-1.77-0.741c-0.674-0.145-1.385-0.216-2.132-0.216h-5.275L56.026,19.884L56.026,19.884z M56.026,32.241
			h5.456c1.396,0,2.523-0.169,3.378-0.506c0.854-0.337,1.511-0.759,1.969-1.265c0.457-0.506,0.764-1.042,0.921-1.607
			s0.235-1.078,0.235-1.536c0-0.939-0.181-1.746-0.542-2.421c-0.362-0.673-0.831-1.222-1.409-1.644
			c-0.578-0.421-1.235-0.728-1.969-0.921c-0.736-0.193-1.476-0.289-2.223-0.289h-5.817L56.026,32.241L56.026,32.241z"/>
	</g>
	<g>
		<path d="M89.627,31.265c-0.844,1.277-1.886,2.192-3.125,2.746c-1.241,0.554-2.607,0.831-4.101,0.831
			c-1.277,0-2.433-0.216-3.468-0.65c-1.036-0.434-1.927-1.042-2.674-1.825c-0.747-0.783-1.318-1.71-1.716-2.782
			s-0.596-2.258-0.596-3.559c0-1.252,0.204-2.408,0.614-3.469c0.41-1.06,0.988-1.981,1.735-2.764
			c0.746-0.783,1.626-1.397,2.638-1.842c1.011-0.445,2.131-0.668,3.36-0.668c1.277,0,2.403,0.223,3.378,0.668
			c0.976,0.445,1.794,1.036,2.457,1.77c0.663,0.735,1.162,1.572,1.5,2.511c0.337,0.939,0.506,1.891,0.506,2.854v1.518H76.116
			c0,0.458,0.09,1.042,0.271,1.752c0.18,0.711,0.512,1.403,0.994,2.078c0.482,0.674,1.125,1.253,1.933,1.735
			c0.807,0.481,1.848,0.722,3.125,0.722c1.107,0,2.179-0.265,3.215-0.794c1.036-0.529,1.831-1.252,2.384-2.168L89.627,31.265z
			 M87.965,24.653c0-0.746-0.151-1.445-0.452-2.096c-0.302-0.65-0.711-1.222-1.229-1.716c-0.518-0.493-1.132-0.885-1.842-1.174
			c-0.711-0.289-1.463-0.433-2.257-0.433c-1.181,0-2.163,0.241-2.945,0.723c-0.783,0.482-1.404,1.036-1.86,1.662
			c-0.458,0.627-0.783,1.234-0.976,1.824c-0.192,0.591-0.289,0.994-0.289,1.211L87.965,24.653L87.965,24.653z"/>
	</g>
	<g>
		<path d="M102.236,19.667h-4.77v10.875c0,0.747,0.205,1.326,0.614,1.735c0.409,0.41,0.976,0.614,1.699,0.614
			c0.41,0,0.824-0.054,1.246-0.163c0.421-0.108,0.825-0.247,1.211-0.415l0.181,1.951c-0.41,0.145-0.88,0.277-1.41,0.397
			c-0.53,0.12-0.999,0.18-1.409,0.18c-0.771,0-1.434-0.115-1.988-0.343s-1-0.535-1.336-0.921c-0.337-0.385-0.583-0.837-0.74-1.354
			c-0.157-0.518-0.236-1.078-0.236-1.681V19.667h-3.613v-1.951h3.613v-4.806h2.167v4.806h4.77V19.667L102.236,19.667z"/>
	</g>
	<g>
		<path d="M105.235,30.145c0.457,0.891,1.131,1.572,2.023,2.042c0.891,0.469,1.83,0.704,2.818,0.704
			c0.457,0,0.915-0.072,1.373-0.216c0.457-0.145,0.867-0.349,1.229-0.614c0.362-0.264,0.656-0.583,0.886-0.958
			c0.229-0.373,0.342-0.8,0.342-1.282c0-0.77-0.247-1.349-0.74-1.734c-0.495-0.386-1.102-0.687-1.826-0.903
			c-0.722-0.216-1.517-0.403-2.384-0.56s-1.663-0.397-2.384-0.723c-0.723-0.325-1.331-0.776-1.826-1.355
			c-0.493-0.578-0.74-1.396-0.74-2.456c0-0.819,0.168-1.53,0.506-2.132c0.337-0.602,0.777-1.102,1.318-1.5
			c0.542-0.397,1.15-0.691,1.825-0.885c0.674-0.193,1.361-0.289,2.059-0.289c1.373,0,2.559,0.252,3.56,0.759
			c0.999,0.506,1.775,1.301,2.33,2.384l-1.952,1.156c-0.409-0.771-0.921-1.354-1.535-1.752s-1.415-0.596-2.403-0.596
			c-0.386,0-0.789,0.061-1.21,0.181c-0.421,0.121-0.802,0.289-1.138,0.506c-0.338,0.217-0.621,0.494-0.849,0.831
			c-0.23,0.337-0.344,0.723-0.344,1.156c0,0.747,0.247,1.3,0.741,1.662c0.492,0.361,1.101,0.645,1.824,0.85
			c0.723,0.205,1.517,0.378,2.384,0.524c0.868,0.145,1.662,0.379,2.385,0.705c0.723,0.325,1.331,0.795,1.825,1.409
			c0.493,0.614,0.74,1.487,0.74,2.62c0,0.867-0.163,1.62-0.487,2.257c-0.325,0.638-0.771,1.174-1.337,1.608
			c-0.565,0.433-1.209,0.759-1.933,0.975c-0.723,0.216-1.482,0.326-2.277,0.326c-1.445,0-2.763-0.278-3.956-0.832
			c-1.193-0.554-2.113-1.41-2.764-2.565L105.235,30.145z"/>
	</g>
	<g>
		<path d="M118.64,21.618c0-1.951,0.324-3.745,0.975-5.383c0.649-1.638,1.553-3.053,2.709-4.245s2.547-2.125,4.174-2.8
			c1.625-0.674,3.414-1.011,5.365-1.011c1.951,0,3.739,0.337,5.364,1.011c1.625,0.674,3.017,1.608,4.173,2.8
			c1.157,1.192,2.06,2.608,2.711,4.245c0.649,1.638,0.976,3.432,0.976,5.383c0,1.952-0.326,3.752-0.976,5.402
			c-0.651,1.649-1.554,3.071-2.711,4.263c-1.156,1.192-2.547,2.12-4.173,2.782c-1.625,0.662-3.414,0.994-5.364,0.994
			c-1.952,0-3.74-0.332-5.365-0.994c-1.626-0.662-3.017-1.59-4.174-2.782c-1.155-1.192-2.059-2.613-2.709-4.263
			C118.964,25.37,118.64,23.569,118.64,21.618z M121.024,21.618c0,1.589,0.253,3.071,0.758,4.444
			c0.506,1.373,1.229,2.565,2.168,3.577c0.939,1.011,2.076,1.806,3.414,2.385c1.336,0.578,2.836,0.867,4.499,0.867
			c1.662,0,3.161-0.289,4.498-0.867c1.336-0.579,2.475-1.373,3.415-2.385c0.939-1.012,1.662-2.205,2.167-3.577
			c0.506-1.373,0.759-2.854,0.759-4.444s-0.253-3.071-0.759-4.444c-0.506-1.374-1.228-2.565-2.167-3.577
			c-0.941-1.011-2.078-1.807-3.415-2.385c-1.337-0.578-2.836-0.867-4.498-0.867c-1.663,0-3.163,0.289-4.499,0.867
			c-1.337,0.578-2.475,1.373-3.414,2.385c-0.94,1.012-1.663,2.204-2.168,3.577C121.277,18.547,121.024,20.028,121.024,21.618z"/>
	</g>
	<g>
		<path d="M148.917,22.413c0-0.313-0.013-0.691-0.036-1.138c-0.024-0.445-0.042-0.897-0.054-1.354s-0.031-0.885-0.054-1.282
			c-0.025-0.398-0.037-0.705-0.037-0.922h2.168c0.023,0.626,0.042,1.229,0.054,1.807c0.012,0.578,0.042,0.952,0.09,1.12h0.108
			c0.434-0.915,1.155-1.704,2.168-2.367c1.012-0.662,2.19-0.993,3.541-0.993c1.3,0,2.359,0.205,3.179,0.614
			c0.818,0.41,1.464,0.946,1.934,1.608c0.47,0.663,0.795,1.427,0.975,2.294c0.181,0.867,0.271,1.758,0.271,2.673v9.936h-2.167
			v-9.828c0-0.674-0.061-1.331-0.181-1.969c-0.121-0.638-0.332-1.21-0.633-1.716c-0.302-0.505-0.723-0.909-1.265-1.21
			c-0.541-0.301-1.246-0.452-2.113-0.452c-0.796,0-1.548,0.139-2.257,0.416c-0.713,0.277-1.326,0.699-1.844,1.264
			c-0.519,0.566-0.928,1.277-1.229,2.132c-0.301,0.855-0.452,1.86-0.452,3.017v8.346h-2.167L148.917,22.413L148.917,22.413z"/>
	</g>
</g>
</svg>
