<?xml version="1.0" encoding="iso-8859-1"?>
<!-- Generator: Adobe Illustrator 16.0.0, SVG Export Plug-In . SVG Version: 6.00 Build 0)  -->
<!DOCTYPE svg PUBLIC "-//W3C//DTD SVG 1.1//EN" "http://www.w3.org/Graphics/SVG/1.1/DTD/svg11.dtd">
<svg version="1.1" id="Layer_1" xmlns="http://www.w3.org/2000/svg" xmlns:xlink="http://www.w3.org/1999/xlink" x="0px" y="0px"
	 width="303.381px" height="82px" viewBox="0 0 303.381 82" style="enable-background:new 0 0 303.381 82;" xml:space="preserve">
<g>
	<g>
		<path d="M28.576,66.669c-3.775,0-7.551-1.438-10.426-4.312c-5.75-5.749-5.75-15.104,0-20.854c0.778-0.779,2.039-0.779,2.818,0
			c0.777,0.779,0.777,2.042,0,2.819c-4.196,4.195-4.196,11.022,0,15.22c4.196,4.193,11.021,4.193,15.217,0
			c0.778-0.78,2.04-0.78,2.818,0c0.779,0.775,0.779,2.038,0,2.815C36.128,65.231,32.353,66.669,28.576,66.669z"/>
	</g>
	<g>
		<path d="M54.062,66.669c-3.776,0-7.552-1.438-10.427-4.312c-0.778-0.777-0.778-2.04,0-2.815c0.778-0.78,2.04-0.78,2.819,0
			c4.195,4.193,11.022,4.193,15.217,0c4.195-4.197,4.195-11.024,0-15.22c-0.778-0.777-0.778-2.04,0-2.819s2.041-0.779,2.819,0
			c5.748,5.75,5.748,15.105-0.001,20.854C61.615,65.231,57.838,66.669,54.062,66.669z"/>
	</g>
	<circle style="fill:none;stroke:#000000;stroke-width:5;stroke-miterlimit:10;" cx="41.319" cy="40.918" r="37.919"/>
	<g>
		<path style="fill:#ED1C24;" d="M39.72,30.791c0.778,0.778,2.05,0.778,2.828,0l2.805-2.804c0.778-0.778,1.414-1.545,1.414-1.705
			s0-1.191,0-2.291v-1.006c0-1.1-0.402-1.195-0.895-0.211l-0.714,1.428c-0.492,0.984-1.351,1.013-1.909,0.065l-0.917-1.558
			c-0.558-0.948-1.471-0.948-2.028,0l-0.917,1.559c-0.558,0.948-1.417,0.918-1.908-0.065l-0.714-1.428
			c-0.492-0.984-0.894-0.889-0.894,0.211v1.006c0,1.1,0,2.214,0,2.476s0.636,1.112,1.414,1.89L39.72,30.791z"/>
	</g>
	<g>
		<defs>
			<circle id="SVGID_1_" cx="41.319" cy="40.918" r="37.919"/>
		</defs>
		<clipPath id="SVGID_2_">
			<use xlink:href="#SVGID_1_"  style="overflow:visible;"/>
		</clipPath>
		<g style="clip-path:url(#SVGID_2_);">
			<path d="M12.327,70.174c-0.511,0-1.02-0.196-1.409-0.586c-0.778-0.777-0.778-2.04,0-2.818l46.029-46.028
				c0.778-0.778,2.041-0.778,2.818,0c0.778,0.778,0.778,2.04,0,2.818L13.736,69.588C13.347,69.978,12.837,70.174,12.327,70.174z"/>
		</g>
		<g style="clip-path:url(#SVGID_2_);">
			<path d="M70.312,70.174c-0.51,0-1.02-0.196-1.408-0.586L22.874,23.559c-0.778-0.778-0.778-2.04,0-2.818
				c0.778-0.778,2.039-0.778,2.818,0L71.72,66.77c0.779,0.778,0.779,2.041,0,2.818C71.332,69.978,70.822,70.174,70.312,70.174z"/>
		</g>
	</g>
</g>
<g>
	<path d="M99.452,16.718h13.542c1.769,0,3.562,0.144,5.376,0.431c1.814,0.289,3.44,0.886,4.879,1.792
		c1.438,0.907,2.611,2.168,3.518,3.784c0.907,1.616,1.361,3.75,1.361,6.405c0,2.39-0.708,4.47-2.124,6.24
		c-1.417,1.771-3.518,2.944-6.306,3.518v0.133c1.548,0.133,2.964,0.498,4.249,1.095c1.283,0.598,2.39,1.394,3.319,2.389
		c0.929,0.996,1.648,2.181,2.157,3.552c0.508,1.372,0.763,2.877,0.763,4.514c0,2.7-0.521,4.902-1.56,6.605
		c-1.041,1.704-2.346,3.043-3.917,4.016c-1.571,0.974-3.275,1.638-5.111,1.991c-1.837,0.354-3.551,0.531-5.145,0.531H99.452V16.718z
		 M103.833,37.03h9.094c2.257,0,4.093-0.276,5.509-0.83c1.416-0.553,2.522-1.228,3.319-2.025c0.797-0.796,1.328-1.648,1.593-2.556
		c0.266-0.906,0.398-1.736,0.398-2.489c0-1.637-0.277-2.997-0.83-4.082c-0.554-1.084-1.294-1.947-2.224-2.589
		c-0.929-0.641-2.014-1.095-3.252-1.361c-1.239-0.266-2.545-0.398-3.917-0.398h-9.691V37.03z M103.833,59.732h10.023
		c2.566,0,4.635-0.31,6.207-0.93c1.57-0.619,2.776-1.394,3.618-2.323c0.84-0.93,1.404-1.914,1.692-2.954
		c0.288-1.039,0.432-1.979,0.432-2.821c0-1.726-0.332-3.208-0.996-4.447c-0.664-1.238-1.527-2.245-2.589-3.021
		c-1.062-0.773-2.268-1.337-3.618-1.692c-1.351-0.354-2.711-0.531-4.083-0.531h-10.687V59.732z"/>
	<path d="M165.565,57.939c-1.55,2.347-3.464,4.027-5.742,5.045c-2.28,1.018-4.791,1.527-7.534,1.527
		c-2.346,0-4.47-0.398-6.372-1.195c-1.903-0.797-3.541-1.913-4.912-3.352c-1.373-1.438-2.423-3.142-3.153-5.111
		c-0.73-1.969-1.095-4.149-1.095-6.539c0-2.3,0.375-4.424,1.128-6.372c0.752-1.947,1.814-3.64,3.187-5.078
		c1.371-1.438,2.987-2.566,4.846-3.385c1.858-0.818,3.916-1.228,6.173-1.228c2.345,0,4.415,0.41,6.207,1.228
		c1.792,0.819,3.296,1.903,4.514,3.252c1.217,1.351,2.135,2.888,2.755,4.613c0.619,1.726,0.929,3.475,0.929,5.244v2.788h-25.755
		c0,0.841,0.166,1.914,0.498,3.22c0.332,1.306,0.94,2.578,1.826,3.816c0.885,1.239,2.068,2.302,3.551,3.187
		c1.482,0.886,3.396,1.327,5.742,1.327c2.035,0,4.005-0.486,5.908-1.46c1.902-0.973,3.363-2.301,4.381-3.983L165.565,57.939z
		 M162.512,45.792c0-1.371-0.277-2.655-0.83-3.85c-0.554-1.195-1.306-2.246-2.257-3.153c-0.952-0.906-2.081-1.626-3.385-2.157
		c-1.306-0.531-2.688-0.796-4.148-0.796c-2.169,0-3.973,0.443-5.41,1.328c-1.438,0.886-2.579,1.903-3.418,3.053
		c-0.841,1.151-1.438,2.268-1.792,3.352c-0.354,1.085-0.531,1.826-0.531,2.224H162.512z"/>
	<path d="M188.731,36.632h-8.763v19.98c0,1.372,0.376,2.435,1.129,3.187c0.752,0.753,1.792,1.128,3.12,1.128
		c0.752,0,1.515-0.1,2.29-0.299c0.773-0.199,1.515-0.453,2.224-0.763l0.332,3.584c-0.754,0.266-1.616,0.509-2.589,0.73
		c-0.975,0.221-1.837,0.332-2.589,0.332c-1.417,0-2.634-0.211-3.651-0.631c-1.019-0.42-1.837-0.984-2.456-1.692
		c-0.62-0.708-1.073-1.537-1.36-2.489c-0.289-0.951-0.432-1.98-0.432-3.087v-19.98h-6.638v-3.584h6.638v-8.829h3.982v8.829h8.763
		V36.632z"/>
	<path d="M194.24,55.882c0.84,1.638,2.079,2.888,3.717,3.751c1.637,0.862,3.363,1.294,5.178,1.294c0.84,0,1.682-0.133,2.522-0.398
		c0.84-0.266,1.593-0.641,2.257-1.128c0.664-0.486,1.205-1.072,1.627-1.76c0.42-0.686,0.63-1.471,0.63-2.356
		c0-1.415-0.454-2.478-1.36-3.186c-0.908-0.708-2.024-1.262-3.353-1.66c-1.327-0.397-2.788-0.74-4.381-1.028
		c-1.593-0.287-3.054-0.73-4.381-1.328c-1.328-0.597-2.446-1.427-3.353-2.489c-0.907-1.062-1.36-2.565-1.36-4.513
		c0-1.504,0.309-2.81,0.929-3.917c0.619-1.106,1.428-2.025,2.423-2.755c0.996-0.73,2.113-1.271,3.353-1.626
		c1.238-0.354,2.5-0.531,3.783-0.531c2.522,0,4.702,0.464,6.539,1.394c1.836,0.929,3.263,2.39,4.281,4.381l-3.585,2.124
		c-0.753-1.416-1.692-2.489-2.82-3.219c-1.129-0.73-2.601-1.095-4.415-1.095c-0.708,0-1.449,0.111-2.224,0.332
		c-0.774,0.222-1.472,0.531-2.091,0.929c-0.62,0.398-1.14,0.907-1.56,1.527c-0.421,0.62-0.631,1.328-0.631,2.124
		c0,1.372,0.453,2.389,1.361,3.053c0.906,0.664,2.024,1.185,3.352,1.561c1.328,0.376,2.788,0.696,4.381,0.962
		c1.594,0.266,3.054,0.697,4.382,1.295c1.327,0.597,2.444,1.46,3.352,2.589c0.906,1.128,1.361,2.732,1.361,4.812
		c0,1.593-0.299,2.977-0.896,4.148c-0.598,1.173-1.417,2.157-2.456,2.954c-1.04,0.796-2.224,1.394-3.552,1.792
		c-1.327,0.398-2.721,0.598-4.182,0.598c-2.655,0-5.078-0.51-7.269-1.527s-3.883-2.589-5.078-4.713L194.24,55.882z"/>
	<path d="M218.867,40.216c0-3.584,0.597-6.88,1.792-9.891c1.194-3.009,2.854-5.609,4.979-7.799s4.68-3.905,7.667-5.145
		c2.986-1.238,6.272-1.858,9.857-1.858c3.584,0,6.87,0.62,9.857,1.858c2.986,1.239,5.542,2.954,7.666,5.145
		c2.125,2.19,3.784,4.791,4.979,7.799c1.195,3.01,1.793,6.306,1.793,9.891s-0.598,6.893-1.793,9.924
		c-1.194,3.031-2.854,5.642-4.979,7.832c-2.124,2.19-4.68,3.895-7.666,5.111c-2.987,1.217-6.273,1.826-9.857,1.826
		c-3.585,0-6.871-0.609-9.857-1.826c-2.987-1.217-5.543-2.921-7.667-5.111s-3.784-4.801-4.979-7.832
		C219.464,47.109,218.867,43.801,218.867,40.216z M223.248,40.216c0,2.92,0.465,5.642,1.394,8.165
		c0.93,2.522,2.257,4.713,3.983,6.572c1.726,1.858,3.816,3.318,6.272,4.381c2.456,1.062,5.211,1.593,8.265,1.593
		c3.053,0,5.808-0.531,8.264-1.593c2.456-1.062,4.547-2.522,6.273-4.381c1.726-1.859,3.053-4.05,3.982-6.572
		s1.394-5.244,1.394-8.165s-0.464-5.642-1.394-8.165s-2.257-4.713-3.982-6.572c-1.727-1.858-3.817-3.319-6.273-4.381
		s-5.211-1.593-8.264-1.593c-3.054,0-5.809,0.531-8.265,1.593s-4.547,2.522-6.272,4.381c-1.727,1.859-3.054,4.049-3.983,6.572
		C223.713,34.574,223.248,37.296,223.248,40.216z"/>
	<path d="M274.493,41.677c0-0.575-0.023-1.271-0.066-2.091c-0.045-0.818-0.078-1.648-0.1-2.489c-0.022-0.84-0.056-1.626-0.1-2.356
		c-0.045-0.73-0.066-1.294-0.066-1.693h3.982c0.044,1.151,0.077,2.257,0.1,3.319c0.022,1.062,0.077,1.749,0.166,2.058h0.199
		c0.797-1.681,2.124-3.13,3.982-4.348c1.859-1.216,4.026-1.825,6.506-1.825c2.39,0,4.336,0.376,5.841,1.128
		c1.504,0.753,2.688,1.737,3.552,2.954c0.863,1.218,1.46,2.622,1.792,4.215s0.498,3.231,0.498,4.912v18.255h-3.982V45.659
		c0-1.238-0.111-2.444-0.332-3.617c-0.222-1.172-0.609-2.224-1.162-3.153c-0.554-0.929-1.327-1.67-2.323-2.224
		c-0.995-0.553-2.29-0.83-3.883-0.83c-1.461,0-2.844,0.255-4.148,0.763c-1.307,0.509-2.435,1.284-3.386,2.323
		c-0.952,1.041-1.704,2.346-2.257,3.917c-0.554,1.571-0.83,3.418-0.83,5.542v15.334h-3.982V41.677z"/>
</g>
<g>
</g>
<g>
</g>
<g>
</g>
<g>
</g>
<g>
</g>
<g>
</g>
</svg>
