<?xml version="1.0" encoding="iso-8859-1"?>
<!-- Generator: Adobe Illustrator 16.0.0, SVG Export Plug-In . SVG Version: 6.00 Build 0)  -->
<!DOCTYPE svg PUBLIC "-//W3C//DTD SVG 1.1//EN" "http://www.w3.org/Graphics/SVG/1.1/DTD/svg11.dtd">
<svg version="1.1" id="Layer_1" xmlns="http://www.w3.org/2000/svg" xmlns:xlink="http://www.w3.org/1999/xlink" x="0px" y="0px"
	 width="227px" height="79px" viewBox="0 0 227 79" style="enable-background:new 0 0 227 79;" xml:space="preserve">
<g>
	<path style="fill:#FFFFFF;" d="M6.887,10.365h14.484c1.893,0,3.81,0.154,5.75,0.461c1.941,0.309,3.68,0.948,5.219,1.917
		c1.537,0.971,2.793,2.32,3.764,4.047c0.969,1.728,1.455,4.011,1.455,6.851c0,2.556-0.758,4.782-2.271,6.674
		c-1.516,1.894-3.764,3.148-6.746,3.763v0.142c1.656,0.142,3.172,0.533,4.545,1.171c1.371,0.639,2.555,1.491,3.549,2.556
		c0.994,1.065,1.764,2.333,2.309,3.798c0.543,1.468,0.816,3.077,0.816,4.828c0,2.888-0.557,5.243-1.668,7.062
		c-1.113,1.823-2.51,3.257-4.189,4.298c-1.682,1.041-3.504,1.752-5.467,2.129c-1.965,0.381-3.799,0.566-5.503,0.566H6.887V10.365z
		 M11.573,32.091H21.3c2.414,0,4.378-0.295,5.894-0.888c1.514-0.591,2.697-1.313,3.549-2.166c0.852-0.852,1.42-1.763,1.705-2.733
		c0.283-0.969,0.426-1.857,0.426-2.663c0-1.75-0.297-3.206-0.889-4.366c-0.592-1.159-1.385-2.083-2.377-2.769
		c-0.994-0.686-2.156-1.171-3.48-1.456c-1.326-0.284-2.722-0.426-4.189-0.426H11.573V32.091z M11.573,56.373h10.721
		c2.745,0,4.958-0.33,6.638-0.994c1.68-0.662,2.971-1.49,3.869-2.484c0.898-0.994,1.502-2.047,1.811-3.16
		c0.309-1.109,0.463-2.115,0.463-3.018c0-1.846-0.355-3.431-1.066-4.756c-0.709-1.325-1.633-2.402-2.768-3.231
		c-1.137-0.828-2.428-1.431-3.871-1.811c-1.443-0.378-2.899-0.568-4.366-0.568H11.573V56.373z"/>
	<path style="fill:#FFFFFF;" d="M77.603,54.457c-1.658,2.509-3.705,4.307-6.142,5.396c-2.438,1.088-5.125,1.633-8.059,1.633
		c-2.51,0-4.781-0.428-6.816-1.278s-3.787-2.047-5.254-3.586c-1.468-1.537-2.592-3.358-3.372-5.468
		c-0.781-2.104-1.172-4.438-1.172-6.992c0-2.46,0.401-4.732,1.207-6.816c0.805-2.082,1.94-3.893,3.408-5.432
		c1.467-1.538,3.194-2.744,5.183-3.621c1.988-0.875,4.189-1.313,6.604-1.313c2.508,0,4.721,0.438,6.638,1.313
		c1.917,0.876,3.526,2.036,4.828,3.479c1.302,1.444,2.283,3.088,2.947,4.935c0.662,1.846,0.993,3.716,0.993,5.609v2.979H51.048
		c0,0.899,0.178,2.05,0.533,3.443c0.354,1.396,1.005,2.758,1.952,4.083c0.946,1.324,2.212,2.462,3.799,3.406
		c1.585,0.947,3.632,1.42,6.141,1.42c2.177,0,4.284-0.521,6.319-1.562s3.597-2.461,4.687-4.261L77.603,54.457z M74.336,41.463
		c0-1.466-0.296-2.839-0.888-4.118c-0.592-1.278-1.396-2.402-2.414-3.373c-1.018-0.969-2.225-1.739-3.62-2.307
		c-1.397-0.568-2.876-0.852-4.438-0.852c-2.32,0-4.249,0.474-5.787,1.42c-1.538,0.947-2.758,2.036-3.656,3.266
		c-0.899,1.231-1.539,2.426-1.917,3.585c-0.38,1.16-0.568,1.952-0.568,2.378L74.336,41.463L74.336,41.463z"/>
	<path style="fill:#FFFFFF;" d="M102.38,31.666h-9.372v21.371c0,1.468,0.402,2.604,1.207,3.408c0.805,0.806,1.917,1.207,3.338,1.207
		c0.804,0,1.62-0.106,2.449-0.319c0.827-0.213,1.621-0.483,2.378-0.815l0.355,3.834c-0.806,0.282-1.729,0.543-2.77,0.78
		c-1.041,0.236-1.964,0.354-2.769,0.354c-1.516,0-2.816-0.228-3.905-0.676c-1.089-0.449-1.963-1.053-2.625-1.811
		c-0.663-0.756-1.147-1.645-1.455-2.662c-0.309-1.018-0.462-2.117-0.462-3.302v-21.37h-7.1v-3.834h7.1v-9.443h4.26v9.443h9.372
		L102.38,31.666L102.38,31.666z"/>
	<path style="fill:#FFFFFF;" d="M108.274,52.256c0.898,1.751,2.225,3.088,3.976,4.012c1.75,0.922,3.596,1.385,5.538,1.385
		c0.899,0,1.799-0.143,2.698-0.428c0.897-0.283,1.703-0.686,2.414-1.207c0.709-0.52,1.289-1.146,1.738-1.881
		c0.448-0.732,0.676-1.572,0.676-2.521c0-1.515-0.485-2.65-1.455-3.407c-0.971-0.758-2.166-1.35-3.586-1.775
		c-1.42-0.425-2.981-0.793-4.687-1.101s-3.267-0.781-4.687-1.421c-1.42-0.639-2.616-1.525-3.585-2.662
		c-0.971-1.137-1.456-2.744-1.456-4.828c0-1.609,0.331-3.005,0.994-4.189c0.662-1.183,1.526-2.166,2.592-2.947
		c1.064-0.781,2.26-1.36,3.585-1.739c1.324-0.378,2.674-0.568,4.047-0.568c2.696,0,5.028,0.497,6.993,1.491
		c1.964,0.994,3.49,2.556,4.578,4.686l-3.834,2.271c-0.805-1.514-1.812-2.663-3.019-3.443c-1.207-0.781-2.78-1.171-4.721-1.171
		c-0.759,0-1.552,0.119-2.38,0.355c-0.828,0.237-1.573,0.568-2.235,0.994c-0.664,0.426-1.22,0.971-1.669,1.633
		c-0.45,0.663-0.675,1.42-0.675,2.272c0,1.468,0.485,2.556,1.456,3.266c0.97,0.709,2.165,1.267,3.584,1.668
		c1.42,0.401,2.982,0.745,4.688,1.028c1.703,0.283,3.266,0.746,4.688,1.386c1.42,0.64,2.613,1.562,3.586,2.771
		c0.969,1.207,1.455,2.922,1.455,5.146c0,1.704-0.32,3.185-0.959,4.438c-0.641,1.256-1.518,2.309-2.629,3.16
		c-1.111,0.853-2.379,1.489-3.799,1.915c-1.42,0.429-2.91,0.642-4.473,0.642c-2.84,0-5.431-0.545-7.774-1.633
		c-2.344-1.09-4.154-2.771-5.432-5.041L108.274,52.256z"/>
	<path style="fill:#FFFFFF;" d="M134.615,35.5c0-3.834,0.639-7.36,1.916-10.579c1.279-3.218,3.053-6,5.326-8.343
		c2.271-2.343,5.004-4.177,8.199-5.502c3.193-1.325,6.711-1.988,10.545-1.988s7.348,0.663,10.543,1.988
		c3.193,1.326,5.928,3.16,8.197,5.502c2.273,2.343,4.051,5.125,5.326,8.343c1.275,3.219,1.916,6.745,1.916,10.579
		s-0.641,7.373-1.916,10.614c-1.275,3.243-3.053,6.034-5.326,8.379c-2.271,2.343-5.004,4.166-8.197,5.467
		c-3.195,1.301-6.709,1.952-10.543,1.952s-7.352-0.651-10.545-1.952c-3.195-1.301-5.93-3.124-8.199-5.467
		c-2.273-2.345-4.047-5.136-5.326-8.379C135.254,42.872,134.615,39.333,134.615,35.5z M139.301,35.5c0,3.124,0.496,6.035,1.49,8.732
		s2.414,5.041,4.26,7.028c1.848,1.988,4.084,3.552,6.711,4.688c2.627,1.137,5.572,1.704,8.84,1.704s6.211-0.567,8.838-1.704
		c2.627-1.136,4.863-2.697,6.711-4.688c1.848-1.987,3.268-4.331,4.262-7.028c0.992-2.697,1.488-5.608,1.488-8.732
		s-0.496-6.035-1.488-8.733c-0.994-2.698-2.414-5.041-4.262-7.029c-1.848-1.988-4.084-3.55-6.711-4.686
		c-2.627-1.136-5.57-1.704-8.838-1.704s-6.213,0.568-8.84,1.704c-2.627,1.136-4.863,2.698-6.711,4.686
		c-1.846,1.988-3.266,4.331-4.26,7.029C139.797,29.464,139.301,32.375,139.301,35.5z"/>
	<path style="fill:#FFFFFF;" d="M194.111,37.062c0-0.615-0.023-1.36-0.07-2.237c-0.047-0.875-0.084-1.763-0.105-2.663
		c-0.023-0.898-0.061-1.739-0.105-2.521c-0.047-0.781-0.07-1.384-0.07-1.81h4.262c0.047,1.231,0.082,2.414,0.104,3.55
		c0.021,1.136,0.082,1.87,0.178,2.201h0.215c0.852-1.798,2.271-3.348,4.26-4.651c1.988-1.301,4.307-1.952,6.959-1.952
		c2.557,0,4.639,0.402,6.248,1.207c1.605,0.805,2.875,1.858,3.799,3.159c0.922,1.303,1.561,2.805,1.916,4.509
		c0.354,1.704,0.533,3.456,0.533,5.253v19.523h-4.262V41.32c0-1.324-0.117-2.614-0.354-3.869c-0.238-1.253-0.65-2.378-1.242-3.373
		c-0.594-0.994-1.42-1.786-2.486-2.378c-1.063-0.591-2.449-0.887-4.152-0.887c-1.562,0-3.043,0.273-4.438,0.816
		c-1.396,0.544-2.604,1.374-3.621,2.485c-1.02,1.113-1.822,2.509-2.414,4.189c-0.592,1.681-0.887,3.657-0.887,5.929v16.398h-4.262
		v-23.57L194.111,37.062L194.111,37.062z"/>
</g>
</svg>
